<svg width="204" height="120" viewBox="0 0 204 120" fill="none" xmlns="http://www.w3.org/2000/svg">
<path opacity="0.992" fill-rule="evenodd" clip-rule="evenodd" d="M25.6721 0.0486796C76.3017 -0.0811342 126.931 0.0486827 177.559 0.438132C191.531 3.76501 199.968 12.4628 202.873 26.5314C203.392 48.3408 203.392 70.1501 202.873 91.9594C199.059 107.845 189.062 117.192 172.885 120C167.825 119.482 163.541 117.405 160.033 113.769C153.49 105.329 148.557 95.9817 145.234 85.7282C144.65 85.2406 144 84.8511 143.287 84.5598C137.376 83.601 131.404 83.0823 125.372 83.002C109.534 82.4825 93.6962 82.4825 77.8587 83.002C72.3449 83.0908 66.8925 83.6104 61.5017 84.5598C57.513 92.891 53.229 101.07 48.6498 109.095C43.347 117.781 35.6881 121.026 25.6721 118.832C12.4747 115.241 4.29618 106.803 1.13664 93.5172C-0.378879 71.4464 -0.378879 49.3775 1.13664 27.3103C3.76201 13.1353 11.9405 4.04809 25.6721 0.0486796Z" fill="#C8C8C8"/>
<path fill-rule="evenodd" clip-rule="evenodd" d="M42.0291 24.1947C45.2265 23.9874 48.3422 24.3769 51.376 25.3631C52.6612 28.4322 53.31 31.6777 53.3233 35.0994C63.907 33.7359 67.8015 38.1498 65.0068 48.3408C64.358 48.9899 63.7084 49.639 63.0596 50.2881C60.2033 50.5477 57.3479 50.8073 54.4916 51.067C54.1022 51.4564 53.7127 51.8459 53.3233 52.2353C53.2438 61.5703 48.7005 64.6859 39.6924 61.5822C39.0436 60.8033 38.394 60.0244 37.7452 59.2455C37.5839 56.4497 37.1945 53.7235 36.5768 51.067C33.4612 50.8073 30.3456 50.5477 27.2299 50.2881C26.2942 49.5851 25.645 48.6763 25.2827 47.5619C24.5984 43.8335 24.858 40.1986 26.0616 36.6572C29.5001 36.0318 33.0051 35.6424 36.5768 35.4889C37.1945 32.8323 37.5839 30.1062 37.7452 27.3104C39.1565 26.1598 40.5843 25.1213 42.0291 24.1947Z" fill="black"/>
<path fill-rule="evenodd" clip-rule="evenodd" d="M153.413 24.9736C167.591 23.1941 175.9 29.2955 178.338 43.2779C174.452 61.3184 164.066 66.5111 147.181 58.856C139.881 51.9113 138.193 43.7328 142.119 34.3205C144.877 29.8651 148.641 26.7495 153.413 24.9736Z" fill="black"/>
</svg>
