<svg width="286" height="160" viewBox="0 0 286 160" fill="none" xmlns="http://www.w3.org/2000/svg">
<mask id="mask0_4_179" style="mask-type:alpha" maskUnits="userSpaceOnUse" x="0" y="22" width="285" height="125">
<rect y="22" width="284.938" height="124.058" fill="url(#paint0_linear_4_179)"/>
</mask>
<g mask="url(#mask0_4_179)">
<path d="M249.225 38.2933L233.12 32.9133L166.793 33.1209L155.312 28.9963L145.597 33.0319L104.085 32.9182L87.6362 25.3759H63.7193L60.0198 32.9158H39.1746L0 95.3005L43.608 144.523H241.423L285.031 95.3005L249.223 38.2908L249.225 38.2933ZM240.418 142.292H44.6139L2.78265 95.0732L40.4127 35.1473H61.416L65.1131 27.6075H87.1494L103.593 35.1473L146.04 35.2635L155.369 31.386L166.406 35.3524L232.759 35.1449L247.757 40.1541L282.249 95.0683L240.418 142.287V142.292Z" fill="url(#paint1_linear_4_179)"/>
</g>
<path d="M282.251 95.073L240.418 142.289H44.6138L2.78259 95.073L40.4126 35.1471H61.416L65.113 27.6073H87.1493L103.596 35.1471L146.04 35.2657L155.369 31.3883L166.405 35.3547L232.759 35.1471L247.757 40.1589L282.251 95.073Z" fill="url(#paint2_linear_4_179)"/>
<path d="M282.246 95.0729L247.759 40.1588L232.756 35.1495L166.407 35.3522L155.371 31.3858L146.037 35.2632L103.593 35.1495L87.1488 27.6097H65.1149L61.4179 35.1495H40.4171L2.78455 95.0729H27.9495L46.9165 109.172H77.6344L82.2334 95.0729H102.159L106.739 75.1248H111.283L117.422 72.4509L116.134 85.9885L133.107 95.0729H282.246Z" fill="#4A357D"/>
<path d="M16.1102 87.7062H37.5485L41.2332 80.6383H31.7262L38.453 68.8454L49.4749 64.8321L52.9569 58.1597L42.4663 61.8097L48.0489 52.021L44.7597 47.0513H50.886H58.7495L61.1146 42.5165H44.4903L16.1102 87.7062Z" fill="white"/>
<path d="M69.7097 34.9739L57.2644 60.3687L72.354 69.3246L78.2751 72.384L69.3143 77.25L62.9903 93.7309H52.8408L63.6946 68.6401L55.5864 63.7914L40.2571 95.0654L49.3489 101.805H72.2897L83.6551 66.9497L68.1231 58.4016L76.4834 39.0762H83.9566L89.0424 41.2139L81.8486 44.5724L76.9382 57.376L85.3084 61.8737L92.9594 38.409L85.5308 34.9739H69.7097Z" fill="white"/>
<path d="M97.6869 42.516L84.7078 87.7057H96.2906L100.872 67.7576H109.749L120.776 62.9559L122.82 46.3638L114.309 42.516H97.6844H97.6869ZM112.571 52.1515L110.792 61.9995H102.197L105.63 47.0483H113.493L119.296 49.4084L112.571 52.149V52.1515Z" fill="white"/>
<path d="M127.668 42.516L123.932 81.8068L134.954 87.7057H156.392L153.543 46.3638L144.295 42.516H127.671H127.668ZM144.451 56.4194L144.728 80.6354H135.221L136.483 47.0483H144.347L150.389 49.4084L144.453 56.4194H144.451Z" fill="white"/>
<path d="M159.881 46.3811L164.367 87.7057H175.95L172.636 67.7576H181.513L185.803 87.7057H197.388L192.191 68.6398L185.373 65.7534L190.641 62.9559L185.069 42.516H168.444L159.881 46.3811V46.3811ZM180.277 61.9995H171.682L170.056 52.2034L163.349 49.4109L169.198 47.0508H177.062L180.277 62.002V61.9995Z" fill="white"/>
<path d="M189.366 47.0508H197.109L210.925 87.7057H222.511L208.306 51.9612L200.193 46.9964H213.953L211.961 42.516H188.044L189.366 47.0508Z" fill="white"/>
<path d="M252.7 61.8735L242.926 46.3119L231.558 42.516H214.934L223.217 60.3685L246.85 69.3244L253.305 80.6378H243.796L237.541 68.6398L224.804 63.7912L233.162 81.8068L247.483 87.7057H268.921L255.885 66.9495L232.2 58.4014L228.882 52.0354L220.16 47.0508H234.145L240.034 57.3758L252.7 61.8735Z" fill="white"/>
<path d="M155.759 37.1014C154.545 38.2851 153.171 39.3824 151.661 40.3783C153.312 41.3841 154.881 42.5308 156.347 43.7985C157.59 42.5308 158.959 41.3841 160.432 40.3783C158.746 39.3824 157.179 38.2851 155.759 37.1014Z" fill="#E2D45C"/>
<path d="M29.1737 82.1208L36.1303 69.9226C33.5503 70.2167 30.9925 70.5182 28.457 70.832L18.7919 86.2231H36.6493L38.7869 82.1208H29.1737V82.1208Z" fill="url(#paint3_linear_4_179)"/>
<path d="M79.0514 66.1091C76.2885 66.2895 73.5429 66.4823 70.8146 66.6874L73.0734 68.0268L80.4946 71.8597L81.8637 67.6561L79.0514 66.1091V66.1091ZM70.5008 78.29L64.0112 95.2133H50.5848L61.8192 69.2451L59.1156 67.6289C57.8009 67.7426 56.4887 67.8588 55.1838 67.9799L42.1331 94.6078L49.8385 100.321H71.2125L80.0943 73.083L70.5008 78.29V78.29Z" fill="url(#paint4_linear_4_179)"/>
<path d="M113.711 64.4163L109.444 66.2747H99.6944L95.1127 86.2228H86.6782L92.6859 65.3035C99.6005 64.9402 106.611 64.6436 113.711 64.4163Z" fill="url(#paint5_linear_4_179)"/>
<path d="M154.803 86.223H135.327L125.501 80.9666L127.11 64.0656C129.519 64.0162 131.936 63.9766 134.363 63.9445L133.681 82.1207H146.228L146.02 63.8481C147.13 63.8457 148.242 63.8432 149.356 63.8432C150.661 63.8432 151.963 63.8457 153.261 63.8506L154.803 86.223V86.223Z" fill="url(#paint6_linear_4_179)"/>
<path d="M195.448 86.2229H187.001L182.711 66.2748H170.886L174.2 86.2229H165.696L163.277 63.9295C170.513 64.0185 177.672 64.1791 184.745 64.4065L181.925 65.9041L190.95 69.7247L195.448 86.2229V86.2229Z" fill="url(#paint7_linear_4_179)"/>
<path d="M212.147 65.642C209.73 65.5012 207.301 65.3677 204.859 65.2441L211.989 86.2228H220.327L212.147 65.642Z" fill="url(#paint8_linear_4_179)"/>
<path d="M255.52 69.1541C253.042 68.8946 250.546 68.6425 248.03 68.4003L255.859 82.1208H242.897L236.487 69.8263L228.324 66.7174C228.141 66.7026 227.961 66.6902 227.778 66.6779L234.265 80.6578L247.775 86.2231H266.241L255.52 69.1541V69.1541Z" fill="url(#paint9_linear_4_179)"/>
<path d="M12.3031 29.2804C15.6207 21.4471 22.3201 15.274 32.209 10.9345C41.6838 6.77574 53.69 4.46263 67.8898 4.06266C96.9994 3.24102 132.14 10.5225 166.833 24.5722C169.327 25.5818 171.799 26.6179 174.245 27.6805L170.786 27.6901C169.303 27.0612 167.806 26.442 166.298 25.8324C95.2198 -2.94655 26.7149 -1.16593 13.5922 29.8032C9.79141 38.7714 11.046 49.2165 16.4736 60.2327C29.7811 87.2623 68.2004 117.721 118.7 138.168C123.585 140.146 128.475 141.987 133.358 143.69C162.983 154.032 192.243 159.272 217.068 158.571C231.086 158.176 242.91 155.904 252.217 151.82C261.773 147.627 268.228 141.698 271.406 134.197C274.272 127.429 274.262 119.819 271.751 111.757L272.823 110.574C275.766 119.46 275.726 127.573 272.697 134.72C269.377 142.553 262.68 148.726 252.789 153.065C243.314 157.224 231.31 159.537 217.11 159.937C215.627 159.978 214.128 160 212.615 160C187.589 160 158.521 154.297 129.276 143.69C125.572 142.348 121.867 140.926 118.165 139.428C83.4724 125.38 53.3572 106.242 33.3675 85.5371C25.5071 77.3955 19.5521 69.3622 15.6059 61.582C14.6545 59.7098 13.8214 57.8545 13.1066 56.0161C9.25408 46.1107 8.98295 37.116 12.3031 29.2804V29.2804Z" fill="url(#paint10_linear_4_179)"/>
<path d="M12.3031 29.2804C15.6207 21.4471 22.3201 15.274 32.209 10.9345C41.6838 6.77574 53.69 4.46263 67.8898 4.06266C96.9994 3.24102 132.14 10.5225 166.833 24.5722C169.327 25.5818 171.799 26.6179 174.245 27.6805L170.786 27.6901C169.303 27.0612 167.806 26.442 166.298 25.8324C95.2198 -2.94655 26.7149 -1.16593 13.5922 29.8032C9.79141 38.7714 11.046 49.2165 16.4736 60.2327C29.7811 87.2623 68.2004 117.721 118.7 138.168C123.585 140.146 128.475 141.987 133.358 143.69C162.983 154.032 192.243 159.272 217.068 158.571C231.086 158.176 242.91 155.904 252.217 151.82C261.773 147.627 268.228 141.698 271.406 134.197C274.272 127.429 274.262 119.819 271.751 111.757L272.823 110.574C275.766 119.46 275.726 127.573 272.697 134.72C269.377 142.553 262.68 148.726 252.789 153.065C243.314 157.224 231.31 159.537 217.11 159.937C215.627 159.978 214.128 160 212.615 160C187.589 160 158.521 154.297 129.276 143.69C125.572 142.348 121.867 140.926 118.165 139.428C83.4724 125.38 53.3572 106.242 33.3675 85.5371C25.5071 77.3955 19.5521 69.3622 15.6059 61.582C14.6545 59.7098 13.8214 57.8545 13.1066 56.0161C9.25408 46.1107 8.98295 37.116 12.3031 29.2804V29.2804Z" fill="url(#paint11_radial_4_179)"/>
<path d="M12.3031 29.2804C15.6207 21.4471 22.3201 15.274 32.209 10.9345C41.6838 6.77574 53.69 4.46263 67.8898 4.06266C96.9994 3.24102 132.14 10.5225 166.833 24.5722C169.327 25.5818 171.799 26.6179 174.245 27.6805L170.786 27.6901C169.303 27.0612 167.806 26.442 166.298 25.8324C95.2198 -2.94655 26.7149 -1.16593 13.5922 29.8032C9.79141 38.7714 11.046 49.2165 16.4736 60.2327C29.7811 87.2623 68.2004 117.721 118.7 138.168C123.585 140.146 128.475 141.987 133.358 143.69C162.983 154.032 192.243 159.272 217.068 158.571C231.086 158.176 242.91 155.904 252.217 151.82C261.773 147.627 268.228 141.698 271.406 134.197C274.272 127.429 274.262 119.819 271.751 111.757L272.823 110.574C275.766 119.46 275.726 127.573 272.697 134.72C269.377 142.553 262.68 148.726 252.789 153.065C243.314 157.224 231.31 159.537 217.11 159.937C215.627 159.978 214.128 160 212.615 160C187.589 160 158.521 154.297 129.276 143.69C125.572 142.348 121.867 140.926 118.165 139.428C83.4724 125.38 53.3572 106.242 33.3675 85.5371C25.5071 77.3955 19.5521 69.3622 15.6059 61.582C14.6545 59.7098 13.8214 57.8545 13.1066 56.0161C9.25408 46.1107 8.98295 37.116 12.3031 29.2804V29.2804Z" fill="url(#paint12_radial_4_179)"/>
<path d="M12.3031 29.2804C15.6207 21.4471 22.3201 15.274 32.209 10.9345C41.6838 6.77574 53.69 4.46263 67.8898 4.06266C96.9994 3.24102 132.14 10.5225 166.833 24.5722C169.327 25.5818 171.799 26.6179 174.245 27.6805L170.786 27.6901C169.303 27.0612 167.806 26.442 166.298 25.8324C95.2198 -2.94655 26.7149 -1.16593 13.5922 29.8032C9.79141 38.7714 11.046 49.2165 16.4736 60.2327C29.7811 87.2623 68.2004 117.721 118.7 138.168C123.585 140.146 128.475 141.987 133.358 143.69C162.983 154.032 192.243 159.272 217.068 158.571C231.086 158.176 242.91 155.904 252.217 151.82C261.773 147.627 268.228 141.698 271.406 134.197C274.272 127.429 274.262 119.819 271.751 111.757L272.823 110.574C275.766 119.46 275.726 127.573 272.697 134.72C269.377 142.553 262.68 148.726 252.789 153.065C243.314 157.224 231.31 159.537 217.11 159.937C215.627 159.978 214.128 160 212.615 160C187.589 160 158.521 154.297 129.276 143.69C125.572 142.348 121.867 140.926 118.165 139.428C83.4724 125.38 53.3572 106.242 33.3675 85.5371C25.5071 77.3955 19.5521 69.3622 15.6059 61.582C14.6545 59.7098 13.8214 57.8545 13.1066 56.0161C9.25408 46.1107 8.98295 37.116 12.3031 29.2804V29.2804Z" fill="url(#paint13_radial_4_179)"/>
<path d="M272.697 31.7942C269.379 24.1116 262.68 18.0572 252.791 13.8012C243.316 9.72236 231.31 7.45374 217.11 7.06145C188.001 6.25562 152.86 13.3971 118.167 27.1766C115.673 28.1668 113.201 29.1829 110.755 30.2251L114.214 30.2345C115.697 29.6178 117.194 29.0104 118.702 28.4125C189.78 0.187042 258.285 1.93341 271.408 32.307C275.209 41.1027 273.954 51.3469 268.526 62.1513C255.219 88.6611 216.8 118.534 166.3 138.587C161.415 140.528 156.525 142.333 151.642 144.004C122.017 154.146 92.7573 159.286 67.9315 158.599C53.9141 158.211 42.0903 155.983 32.7831 151.977C23.227 147.865 16.7716 142.049 13.5945 134.693C10.7279 128.055 10.7377 120.592 13.2494 112.685L12.1772 111.525C9.23418 120.24 9.27361 128.197 12.3029 135.206C15.623 142.888 22.3199 148.943 32.2113 153.199C41.6861 157.278 53.6898 159.546 67.8896 159.939C69.3735 159.979 70.8721 160 72.3855 160C97.4109 160 126.479 154.406 155.724 144.004C159.428 142.688 163.133 141.293 166.835 139.823C201.528 126.046 231.643 107.276 251.633 86.9691C259.493 78.984 265.448 71.1053 269.394 63.4746C270.346 61.6385 271.179 59.8188 271.893 58.0158C275.746 48.3008 276.017 39.4792 272.697 31.7942V31.7942Z" fill="url(#paint14_linear_4_179)"/>
<path d="M272.697 31.7942C269.379 24.1116 262.68 18.0572 252.791 13.8012C243.316 9.72236 231.31 7.45374 217.11 7.06145C188.001 6.25562 152.86 13.3971 118.167 27.1766C115.673 28.1668 113.201 29.1829 110.755 30.2251L114.214 30.2345C115.697 29.6178 117.194 29.0104 118.702 28.4125C189.78 0.187042 258.285 1.93341 271.408 32.307C275.209 41.1027 273.954 51.3469 268.526 62.1513C255.219 88.6611 216.8 118.534 166.3 138.587C161.415 140.528 156.525 142.333 151.642 144.004C122.017 154.146 92.7573 159.286 67.9315 158.599C53.9141 158.211 42.0903 155.983 32.7831 151.977C23.227 147.865 16.7716 142.049 13.5945 134.693C10.7279 128.055 10.7377 120.592 13.2494 112.685L12.1772 111.525C9.23418 120.24 9.27361 128.197 12.3029 135.206C15.623 142.888 22.3199 148.943 32.2113 153.199C41.6861 157.278 53.6898 159.546 67.8896 159.939C69.3735 159.979 70.8721 160 72.3855 160C97.4109 160 126.479 154.406 155.724 144.004C159.428 142.688 163.133 141.293 166.835 139.823C201.528 126.046 231.643 107.276 251.633 86.9691C259.493 78.984 265.448 71.1053 269.394 63.4746C270.346 61.6385 271.179 59.8188 271.893 58.0158C275.746 48.3008 276.017 39.4792 272.697 31.7942V31.7942Z" fill="url(#paint15_radial_4_179)"/>
<path d="M272.697 31.7942C269.379 24.1116 262.68 18.0572 252.791 13.8012C243.316 9.72236 231.31 7.45374 217.11 7.06145C188.001 6.25562 152.86 13.3971 118.167 27.1766C115.673 28.1668 113.201 29.1829 110.755 30.2251L114.214 30.2345C115.697 29.6178 117.194 29.0104 118.702 28.4125C189.78 0.187042 258.285 1.93341 271.408 32.307C275.209 41.1027 273.954 51.3469 268.526 62.1513C255.219 88.6611 216.8 118.534 166.3 138.587C161.415 140.528 156.525 142.333 151.642 144.004C122.017 154.146 92.7573 159.286 67.9315 158.599C53.9141 158.211 42.0903 155.983 32.7831 151.977C23.227 147.865 16.7716 142.049 13.5945 134.693C10.7279 128.055 10.7377 120.592 13.2494 112.685L12.1772 111.525C9.23418 120.24 9.27361 128.197 12.3029 135.206C15.623 142.888 22.3199 148.943 32.2113 153.199C41.6861 157.278 53.6898 159.546 67.8896 159.939C69.3735 159.979 70.8721 160 72.3855 160C97.4109 160 126.479 154.406 155.724 144.004C159.428 142.688 163.133 141.293 166.835 139.823C201.528 126.046 231.643 107.276 251.633 86.9691C259.493 78.984 265.448 71.1053 269.394 63.4746C270.346 61.6385 271.179 59.8188 271.893 58.0158C275.746 48.3008 276.017 39.4792 272.697 31.7942V31.7942Z" fill="url(#paint16_radial_4_179)"/>
<defs>
<linearGradient id="paint0_linear_4_179" x1="142.469" y1="79.7042" x2="142.469" y2="140.497" gradientUnits="userSpaceOnUse">
<stop stop-color="#D9D9D9"/>
<stop offset="1" stop-color="#D9D9D9" stop-opacity="0"/>
</linearGradient>
<linearGradient id="paint1_linear_4_179" x1="0" y1="84.9484" x2="285.034" y2="84.9484" gradientUnits="userSpaceOnUse">
<stop stop-color="#996DFF"/>
<stop offset="0.5" stop-color="#35E8B3"/>
<stop offset="1" stop-color="#E2D45C"/>
</linearGradient>
<linearGradient id="paint2_linear_4_179" x1="142.516" y1="96.8597" x2="142.516" y2="141.115" gradientUnits="userSpaceOnUse">
<stop stop-color="#28203E"/>
<stop offset="1" stop-color="#121214" stop-opacity="0"/>
</linearGradient>
<linearGradient id="paint3_linear_4_179" x1="28.7906" y1="65.9636" x2="28.7906" y2="83.4034" gradientUnits="userSpaceOnUse">
<stop stop-color="#A9A9AD"/>
<stop offset="1" stop-color="#A9A9AD" stop-opacity="0"/>
</linearGradient>
<linearGradient id="paint4_linear_4_179" x1="61.9996" y1="65.9633" x2="61.9996" y2="83.4031" gradientUnits="userSpaceOnUse">
<stop stop-color="#A9A9AD"/>
<stop offset="1" stop-color="#A9A9AD" stop-opacity="0"/>
</linearGradient>
<linearGradient id="paint5_linear_4_179" x1="100.196" y1="65.9633" x2="100.196" y2="83.4031" gradientUnits="userSpaceOnUse">
<stop stop-color="#A9A9AD"/>
<stop offset="1" stop-color="#A9A9AD" stop-opacity="0"/>
</linearGradient>
<linearGradient id="paint6_linear_4_179" x1="140.153" y1="65.9636" x2="140.153" y2="83.4033" gradientUnits="userSpaceOnUse">
<stop stop-color="#A9A9AD"/>
<stop offset="1" stop-color="#A9A9AD" stop-opacity="0"/>
</linearGradient>
<linearGradient id="paint7_linear_4_179" x1="179.363" y1="65.9634" x2="179.363" y2="83.4032" gradientUnits="userSpaceOnUse">
<stop stop-color="#A9A9AD"/>
<stop offset="1" stop-color="#A9A9AD" stop-opacity="0"/>
</linearGradient>
<linearGradient id="paint8_linear_4_179" x1="212.594" y1="65.9633" x2="212.594" y2="83.403" gradientUnits="userSpaceOnUse">
<stop stop-color="#A9A9AD"/>
<stop offset="1" stop-color="#A9A9AD" stop-opacity="0"/>
</linearGradient>
<linearGradient id="paint9_linear_4_179" x1="247.009" y1="65.9637" x2="247.009" y2="83.4034" gradientUnits="userSpaceOnUse">
<stop stop-color="#A9A9AD"/>
<stop offset="1" stop-color="#A9A9AD" stop-opacity="0"/>
</linearGradient>
<linearGradient id="paint10_linear_4_179" x1="258.3" y1="115.68" x2="66.2903" y2="116.688" gradientUnits="userSpaceOnUse">
<stop stop-color="#996DFF"/>
<stop offset="0.5" stop-color="#35E8B3"/>
<stop offset="1" stop-color="#E2D45C"/>
</linearGradient>
<radialGradient id="paint11_radial_4_179" cx="0" cy="0" r="1" gradientUnits="userSpaceOnUse" gradientTransform="translate(140.747 146.557) rotate(15.4243) scale(128.862 209.869)">
<stop stop-color="#171226"/>
<stop offset="1" stop-color="#171226" stop-opacity="0"/>
</radialGradient>
<radialGradient id="paint12_radial_4_179" cx="0" cy="0" r="1" gradientUnits="userSpaceOnUse" gradientTransform="translate(173.842 28.375) rotate(-157.5) scale(28.9521 47.3177)">
<stop stop-color="#261945"/>
<stop offset="1" stop-color="#261945" stop-opacity="0"/>
</radialGradient>
<radialGradient id="paint13_radial_4_179" cx="0" cy="0" r="1" gradientUnits="userSpaceOnUse" gradientTransform="translate(273.128 108.591) rotate(76.4357) scale(32.2168 54.5936)">
<stop stop-color="#191326"/>
<stop offset="1" stop-color="#191326" stop-opacity="0"/>
</radialGradient>
<linearGradient id="paint14_linear_4_179" x1="149.813" y1="23.9517" x2="189.698" y2="129.417" gradientUnits="userSpaceOnUse">
<stop stop-color="#996DFF"/>
<stop offset="0.5" stop-color="#35E8B3"/>
<stop offset="1" stop-color="#E2D45C"/>
</linearGradient>
<radialGradient id="paint15_radial_4_179" cx="0" cy="0" r="1" gradientUnits="userSpaceOnUse" gradientTransform="translate(108.104 33.2244) rotate(-18.61) scale(65.3776 105.018)">
<stop stop-color="#171225"/>
<stop offset="1" stop-color="#171225" stop-opacity="0"/>
</radialGradient>
<radialGradient id="paint16_radial_4_179" cx="0" cy="0" r="1" gradientUnits="userSpaceOnUse" gradientTransform="translate(12.2942 111.028) rotate(66.6037) scale(42.6238 72.885)">
<stop stop-color="#191327"/>
<stop offset="1" stop-color="#191327" stop-opacity="0"/>
</radialGradient>
</defs>
</svg>
