<svg width="208" height="145" viewBox="0 0 208 145" fill="none" xmlns="http://www.w3.org/2000/svg">
<g filter="url(#filter0_d_662_5463)">
<path opacity="0.992" fill-rule="evenodd" clip-rule="evenodd" d="M48.9244 0.0349448C85.2691 -0.0582425 121.613 0.034947 157.957 0.314515C167.987 2.70273 174.044 8.94646 176.129 19.0457C176.502 34.7016 176.502 50.3575 176.129 66.0134C173.391 77.4171 166.215 84.1268 154.602 86.1425C150.97 85.7706 147.894 84.2794 145.376 81.6694C140.679 75.6105 137.138 68.9008 134.752 61.5403C134.333 61.1903 133.867 60.9107 133.355 60.7016C129.111 60.0133 124.824 59.6409 120.494 59.5833C109.125 59.2104 97.756 59.2104 86.3868 59.5833C82.4287 59.6471 78.5147 60.02 74.6449 60.7016C71.7815 66.6822 68.7063 72.5531 65.4191 78.3145C61.6124 84.5495 56.1144 86.8789 48.9244 85.3038C39.4506 82.7261 33.5796 76.669 31.3115 67.1317C30.2236 51.2881 30.2236 35.4458 31.3115 19.6048C33.1962 9.42922 39.0671 2.90594 48.9244 0.0349448Z" fill="#C8C8C8"/>
</g>
<path fill-rule="evenodd" clip-rule="evenodd" d="M60.6665 17.3683C62.9618 17.2194 65.1983 17.499 67.3762 18.207C68.2988 20.4102 68.7645 22.7399 68.774 25.1962C76.3716 24.2175 79.1673 27.3859 77.1611 34.7016C76.6954 35.1675 76.229 35.6335 75.7633 36.0995C73.7129 36.2858 71.6631 36.4722 69.6127 36.6586C69.3332 36.9382 69.0536 37.2177 68.774 37.4973C68.717 44.1985 65.4555 46.4351 58.9891 44.207C58.5233 43.6479 58.057 43.0887 57.5912 42.5296C57.4755 40.5226 57.1959 38.5656 56.7525 36.6586C54.516 36.4722 52.2794 36.2858 50.0429 36.0995C49.3711 35.5948 48.9051 34.9425 48.645 34.1425C48.1538 31.466 48.3402 28.8567 49.2041 26.3145C51.6725 25.8656 54.1886 25.586 56.7525 25.4758C57.1959 23.5688 57.4755 21.6118 57.5912 19.6048C58.6044 18.7789 59.6293 18.0334 60.6665 17.3683Z" fill="black"/>
<path fill-rule="evenodd" clip-rule="evenodd" d="M140.624 17.9274C150.802 16.65 156.766 21.0299 158.516 31.0672C155.727 44.0177 148.271 47.7452 136.151 42.25C130.91 37.2647 129.698 31.3937 132.516 24.6371C134.496 21.4388 137.198 19.2023 140.624 17.9274Z" fill="black"/>
<path opacity="0.97" fill-rule="evenodd" clip-rule="evenodd" d="M133.076 144.744C132.33 144.744 131.584 144.744 130.839 144.744C123.602 144.434 118.29 141.079 114.904 134.679C111.337 122.947 113.853 112.79 122.452 104.206C130.053 99.5514 138.068 98.6199 146.495 101.411C153.394 105.419 156.562 111.477 156 119.583C155.092 134.34 147.45 142.727 133.076 144.744ZM132.516 110.636C134.475 110.663 136.432 110.663 138.387 110.636C139.84 111.296 140.772 112.414 141.183 113.991C141.676 119.058 141.489 124.09 140.624 129.088C137.698 135.36 133.598 136.479 128.323 132.443C127.463 127.819 127.277 123.159 127.764 118.464C128.374 115.182 129.958 112.573 132.516 110.636Z" fill="#1B97DA"/>
<path opacity="0.974" fill-rule="evenodd" clip-rule="evenodd" d="M0 143.626C0 142.507 0 141.389 0 140.271C2.16627 127.216 4.03007 114.076 5.5914 100.851C13.6057 100.478 21.6201 100.478 29.6344 100.851C38.3213 103.22 42.4217 108.904 41.9355 117.905C42.4388 127.237 39.084 134.786 31.871 140.55C28.7386 142.34 25.3837 143.458 21.8065 143.905C14.5321 144.224 7.2633 144.131 0 143.626ZM17.8925 110.636C21.5361 109.93 24.6114 110.862 27.1183 113.432C28.3421 118.883 28.1557 124.288 26.5591 129.647C23.494 134.694 19.3937 135.998 14.2581 133.561C14.679 127.023 15.4245 120.5 16.4946 113.991C16.6265 112.699 17.0925 111.581 17.8925 110.636Z" fill="#C81927"/>
<path opacity="0.959" fill-rule="evenodd" clip-rule="evenodd" d="M62.0644 100.572C66.3513 100.572 70.6377 100.572 74.9246 100.572C74.8295 101.311 75.0157 101.964 75.4837 102.529C73.5407 112.03 72.3291 121.629 71.8493 131.325C74.1798 133.709 76.8827 134.174 79.9568 132.722C81.2954 131.631 82.1341 130.233 82.473 128.529C83.4789 119.59 84.4104 110.644 85.2687 101.69C85.5482 101.411 85.8278 101.131 86.1074 100.851C90.3898 100.572 94.6768 100.479 98.968 100.572C98.045 110.107 96.833 119.613 95.3332 129.088C93.0871 139.916 86.3774 144.949 75.2042 144.185C70.9396 144.539 66.9328 143.701 63.1826 141.669C59.9503 139.211 58.2728 135.949 58.1504 131.884C59.4565 121.425 60.761 110.988 62.0644 100.572Z" fill="#C81927"/>
<path opacity="0.966" fill-rule="evenodd" clip-rule="evenodd" d="M208 100.572C208 102.622 208 104.672 208 106.722C207.251 108.857 206.225 110.906 204.925 112.873C198.746 119.729 192.502 126.532 186.193 133.281C192.351 133.492 198.502 133.492 204.645 133.281C204.937 133.595 205.123 133.968 205.204 134.4C204.421 136.692 203.769 139.022 203.247 141.389C202.987 142.189 202.521 142.841 201.849 143.346C191.488 143.45 181.144 143.73 170.817 144.185C170.329 144.053 169.863 143.867 169.419 143.626C168.463 140.072 168.929 136.717 170.817 133.561C177.225 125.847 183.842 118.299 190.667 110.916C184.698 110.645 178.733 110.739 172.774 111.195C173.039 107.621 173.785 104.173 175.011 100.851C186.006 100.572 197.002 100.478 208 100.572Z" fill="#1B97DA"/>
<defs>
<filter id="filter0_d_662_5463" x="26.4956" y="0" width="153.913" height="94.1425" filterUnits="userSpaceOnUse" color-interpolation-filters="sRGB">
<feFlood flood-opacity="0" result="BackgroundImageFix"/>
<feColorMatrix in="SourceAlpha" type="matrix" values="0 0 0 0 0 0 0 0 0 0 0 0 0 0 0 0 0 0 127 0" result="hardAlpha"/>
<feOffset dy="4"/>
<feGaussianBlur stdDeviation="2"/>
<feComposite in2="hardAlpha" operator="out"/>
<feColorMatrix type="matrix" values="0 0 0 0 0 0 0 0 0 0 0 0 0 0 0 0 0 0 0.25 0"/>
<feBlend mode="normal" in2="BackgroundImageFix" result="effect1_dropShadow_662_5463"/>
<feBlend mode="normal" in="SourceGraphic" in2="effect1_dropShadow_662_5463" result="shape"/>
</filter>
</defs>
</svg>
